<svg width="100" height="100" viewBox="0 0 100 100" fill="none" xmlns="http://www.w3.org/2000/svg">
<path d="M21.1724 0C17.2549 0 14 3.21762 14 7.13524V92.8604C14 96.778 17.2549 99.9956 21.1724 99.9956H78.3101C82.2277 99.9956 85.4454 96.778 85.4454 92.8604V7.13524C85.4454 3.21762 82.2277 0 78.3101 0H21.1724Z" fill="#81BCF3"/>
<path d="M21.1724 0C17.2549 0 14 3.21762 14 7.13524V92.8604C14 96.778 17.2549 99.9956 21.1724 99.9956H23.5261V16.6613C23.5261 12.7437 26.7809 9.52605 30.6985 9.52605H85.4454V7.13524C85.4454 3.21762 82.2277 0 78.3101 0H21.1724Z" fill="#6EA9E3"/>
<path d="M20.9213 0.604693C17.194 0.733152 14 3.839 14 7.73993V91.3813C14 95.8395 18.1776 99.2513 22.5493 98.377L60.6256 90.7859C63.9508 90.1209 66.3933 87.1441 66.3933 83.753V15.3682C66.3933 11.9771 63.9508 9.03757 60.6256 8.37252L22.5493 0.734932C22.0028 0.625621 21.4537 0.586326 20.9213 0.604711V0.604693Z" fill="#ECEBF1"/>
<path d="M40.1779 42.3928C40.091 42.3912 40.004 42.3944 39.9174 42.4023C39.4662 42.4495 39.0378 42.6247 38.6827 42.9071C38.3277 43.1895 38.0606 43.5674 37.9131 43.9964C37.7655 44.4255 37.7435 44.8877 37.8498 45.3288C37.956 45.7699 38.186 46.1714 38.5127 46.4862L39.2105 47.1837H25.8889C25.5595 47.1542 25.2275 47.1935 24.9142 47.2993C24.6008 47.4051 24.3129 47.5749 24.0688 47.7981C23.8247 48.0213 23.6298 48.2928 23.4965 48.5955C23.3631 48.8981 23.2942 49.2252 23.2942 49.5559C23.2942 49.8867 23.3631 50.2138 23.4965 50.5164C23.6298 50.8191 23.8247 51.0906 24.0688 51.3138C24.3129 51.5369 24.6008 51.7068 24.9142 51.8126C25.2275 51.9184 25.5595 51.9577 25.8889 51.9281H39.2198L38.5127 52.6352C38.2752 52.8526 38.084 53.1158 37.9509 53.4091C37.8177 53.7023 37.7452 54.0194 37.7379 54.3414C37.7305 54.6634 37.7884 54.9835 37.9081 55.2825C38.0277 55.5816 38.2065 55.8533 38.434 56.0813C38.6614 56.3094 38.9326 56.489 39.2313 56.6095C39.53 56.7299 39.85 56.7887 40.172 56.7822C40.494 56.7758 40.8113 56.7042 41.1049 56.5718C41.3985 56.4395 41.6623 56.2491 41.8804 56.0121L46.6341 51.2676C46.8997 51.0171 47.1042 50.7089 47.2317 50.3667C47.3592 50.0246 47.4063 49.6577 47.3694 49.2945C47.3326 48.9312 47.2126 48.5813 47.019 48.2718C46.8253 47.9622 46.5631 47.7014 46.2526 47.5093L41.8803 43.1091C41.6585 42.8824 41.3937 42.7022 41.1013 42.5792C40.809 42.4562 40.495 42.3928 40.1779 42.3928H40.1779Z" fill="#ED5959"/>
<path d="M20.9213 0.604711C17.194 0.73317 14 3.83901 14 7.73995V91.3813C14 95.8395 18.1776 99.2513 22.5493 98.377L23.5261 98.1816V17.266C23.5261 13.3651 26.7201 10.2586 30.4473 10.1308C30.9796 10.1108 31.5288 10.1512 32.0753 10.261L66.3933 17.145V15.3682C66.3933 11.9771 63.9508 9.03757 60.6256 8.37252L22.5493 0.734932C22.0028 0.625621 21.4537 0.586326 20.9213 0.604711V0.604711Z" fill="#D9D7E4"/>
<path d="M21.1847 0.00312805C17.267 0.00312805 14.0123 3.22078 14.0122 7.13844V92.8647C14.0123 96.7823 17.267 100 21.1847 100H78.3232C82.2408 100 85.4585 96.7823 85.4585 92.8647V7.13844C85.4585 3.22078 82.2408 0.00312805 78.3232 0.00312805H21.1847ZM42.5535 4.74761H78.3232C79.6667 4.74761 80.714 5.79497 80.714 7.13844V92.8647C80.714 94.2082 79.6666 95.2555 78.3232 95.2555H38.2369L60.6384 90.7901C63.9636 90.1251 66.4061 87.1483 66.4061 83.7572V15.3715C66.4061 11.9804 63.9636 9.04079 60.6384 8.37574L42.5535 4.74761ZM21.6127 5.41746L59.7266 13.0458C60.8541 13.2714 61.6244 14.2217 61.6244 15.3716V83.7572C61.6244 84.907 60.8541 85.8853 59.7266 86.1108L21.6127 93.7392C20.1361 94.0345 18.8712 92.9945 18.7939 91.5158V7.61295C18.8713 6.13695 20.1365 5.12221 21.6127 5.41746V5.41746ZM40.1906 42.3965C40.1041 42.3949 40.016 42.3979 39.9301 42.406C37.9162 42.6168 37.0672 45.085 38.5254 46.49L39.2232 47.1876H25.9014C22.4418 46.877 22.4418 52.2427 25.9014 51.9321H39.2325L38.5255 52.639C36.0747 54.8816 39.6438 58.4606 41.8932 56.016L46.647 51.2715C47.7856 50.1976 47.5966 48.3363 46.2655 47.5131L41.8932 43.1128C41.4449 42.6549 40.8314 42.3965 40.1907 42.3965L40.1906 42.3965Z" fill="black"/>
</svg>
